<?xml version="1.0" encoding="UTF-8"?>
<svg width="454.95" height="97.2" fill="none" version="1.1" viewBox="0 0 454.95 97.2" xmlns="http://www.w3.org/2000/svg" xmlns:cc="http://creativecommons.org/ns#" xmlns:dc="http://purl.org/dc/elements/1.1/" xmlns:rdf="http://www.w3.org/1999/02/22-rdf-syntax-ns#">
 <metadata>
  <rdf:RDF>
   <cc:Work rdf:about="">
    <dc:format>image/svg+xml</dc:format>
    <dc:type rdf:resource="http://purl.org/dc/dcmitype/StillImage"/>
    <dc:title/>
   </cc:Work>
  </rdf:RDF>
 </metadata>
 <g transform="translate(0,-7.8)" clip-path="url(#clip0)">
  <g fill="#e43225">
   <path d="m113.53 78.231v-69.516h41.397v8.7154h-32.825v21.374h29.479v8.7154h-29.479v21.788h35.125v8.7154h-43.697z"/>
   <path d="m200.71 78.231-14.217-18.468-14.217 18.468h-10.035l19.444-24.694-20.49-25.524h11.29l14.008 19.091 14.217-19.091h11.081l-19.444 25.524 18.399 24.694z"/>
   <path d="m224.55 70.761v34.239h-8.572v-51.255c0-13.073 10.036-26.976 25.716-26.976 15.89 0 27.807 9.9605 27.807 26.354 0 15.978-12.126 26.976-25.925 26.976-6.69 0-15.681-2.9051-19.026-9.3379zm35.961-17.638c0-11.206-7.317-17.846-20.28-17.223-6.272 0.2075-15.89 4.7727-15.054 20.751 0.209 5.1878 5.645 14.941 17.563 14.941 10.244 0 17.771-5.8103 17.771-18.468z"/>
   <path d="m276.81 78.231v-50.217h8.572v5.3952c4.182-4.7727 10.663-6.4327 17.562-6.4327v9.1304c-1.045-0.2075-11.29-1.4526-17.562 11.828v30.504h-8.572z"/>
   <path d="m305.25 53.122c0-14.526 10.454-26.354 24.88-26.354 17.98 0 24.671 11.828 24.671 26.976v4.1502h-40.143c0.628 9.5455 9.2 14.526 17.145 14.318 5.854-0.2075 9.826-1.8676 14.008-6.0178l5.645 5.8103c-5.227 4.9802-11.918 8.3004-20.072 8.3004-15.262-0.2075-26.134-11.413-26.134-27.184zm24.253-17.846c-8.154 0-14.426 7.0553-14.845 14.733h31.153c0-7.4703-5.436-14.733-16.308-14.733z"/>
   <path d="m359.19 71.176 6.273-5.6027c-0.209 0 3.136 3.3201 3.554 3.5276 1.463 1.2451 2.927 2.0752 4.809 2.4902 5.436 1.4526 15.262 1.0375 16.098-6.4328 0.419-4.1502-2.718-6.4328-6.272-7.8854-4.6-1.6601-9.617-2.2826-14.217-4.3577-5.227-2.2826-8.572-6.2253-8.572-12.036 0-15.148 21.744-17.638 31.57-10.583 0.418 0.415 5.227 4.7727 5.018 4.7727l-6.272 4.9803c-3.136-3.7352-6.063-5.6028-12.754-5.6028-3.345 0-7.945 1.4526-8.781 4.9802-1.254 4.9803 4.391 6.8479 8.154 7.8854 5.018 1.2451 10.454 2.0751 14.844 4.7727 6.064 3.7352 7.527 11.828 5.227 18.053-2.509 6.8478-10.035 9.5455-16.726 9.753-7.945 0.415-14.844-2.0751-20.489-7.6779-0.418 0-1.464-1.0376-1.464-1.0376z"/>
   <path d="m403.31 71.176 6.272-5.6027c-0.209 0 3.136 3.3201 3.554 3.5276 1.464 1.2451 2.927 2.0752 4.809 2.4902 5.436 1.4526 15.262 1.0375 16.099-6.4328 0.418-4.1502-2.718-6.4328-6.273-7.8854-4.599-1.6601-9.617-2.2826-14.217-4.3577-5.227-2.2826-8.572-6.2253-8.572-12.036 0-15.148 21.744-17.638 31.571-10.583 0.418 0.415 5.227 4.7727 5.017 4.7727l-6.272 4.9803c-3.136-3.7352-6.063-5.6028-12.753-5.6028-3.346 0-7.945 1.4526-8.782 4.9802-1.254 4.9803 4.391 6.8479 8.154 7.8854 5.018 1.2451 10.454 2.0751 14.845 4.7727 6.063 3.7352 7.526 11.828 5.227 18.053-2.509 6.8478-10.036 9.5455-16.726 9.753-7.945 0.415-14.845-2.0751-20.49-7.6779-0.418 0-1.463-1.0376-1.463-1.0376z"/>
   <path d="m444.08 28.014v-5.3953h-1.881v-1.0376h5.018v1.0376h-1.882v5.3953z"/>
   <path d="m453.48 28.014v-4.9803l-1.882 4.9803h-0.418l-1.882-4.9803v4.9803h-1.045v-6.4329h1.672l1.673 4.3578 1.673-4.3578h1.673v6.4329z"/>
  </g>
  <g fill="#fff">
   <path d="m55.405 78.231-6.2722-16.601h-33.87l-6.2723 16.601h-8.9902l27.18-69.516h9.8265l26.971 69.516zm-23.626-59.555-12.754 34.447h26.552z"/>
   <path d="m69.622 78.231v-69.516h8.7812v69.516z"/>
   <path d="m91.577 78.231v-49.18h8.7809v49.18z"/>
   <path d="m108.72 13.073v-0.415-0.415c-6.691-0.2075-12.127-5.6028-12.336-12.243h-0.6272-0.6272c-0.2091 6.6403-5.6451 12.036-12.336 12.243v0.415 0.415c6.6904 0.2075 12.126 5.6028 12.336 12.243h0.6272 0.6272c0.2091-6.6403 5.6449-12.036 12.336-12.243z"/>
  </g>
 </g>
 <defs>
  <clipPath id="clip0">
   <rect width="454.95" height="105" fill="#fff"/>
  </clipPath>
 </defs>
</svg>
