<svg width="120" height="120" viewBox="0 0 120 120" fill="none" xmlns="http://www.w3.org/2000/svg">
<path d="M60 23.604C69.723 23.604 78.861 27.39 85.737 34.263C92.613 41.136 96.399 50.277 96.399 60C96.399 69.723 92.613 78.861 85.737 85.737C78.861 92.613 69.723 96.396 60 96.396C50.277 96.396 41.139 92.61 34.263 85.737C27.387 78.864 23.604 69.723 23.604 60C23.604 50.277 27.39 41.139 34.263 34.263C41.139 27.39 50.277 23.604 60 23.604ZM60 0C26.862 0 0 26.862 0 60C0 93.138 26.862 120 60 120C93.138 120 120 93.138 120 60C120 26.862 93.138 0 60 0Z" fill="#E5E5E5" fill-opacity="0.6"/>
<path d="M60.0002 39.429C48.6392 39.429 39.4292 48.639 39.4292 60C39.4292 71.361 48.6392 80.571 60.0002 80.571C71.3612 80.571 80.5712 71.361 80.5712 60C80.5712 48.639 71.3612 39.429 60.0002 39.429Z" fill="#E5E5E5" fill-opacity="0.6"/>
</svg>