<?xml version="1.0" encoding="UTF-8" standalone="no"?>
<svg
   xmlns:dc="http://purl.org/dc/elements/1.1/"
   xmlns:cc="http://creativecommons.org/ns#"
   xmlns:rdf="http://www.w3.org/1999/02/22-rdf-syntax-ns#"
   xmlns:svg="http://www.w3.org/2000/svg"
   xmlns="http://www.w3.org/2000/svg"
   xmlns:sodipodi="http://sodipodi.sourceforge.net/DTD/sodipodi-0.dtd"
   xmlns:inkscape="http://www.inkscape.org/namespaces/inkscape"
   inkscape:version="1.0 (4035a4fb49, 2020-05-01)"
   sodipodi:docname="ali-logo.svg"
   id="svg41"
   viewBox="0 0 454.94368 105"
   version="1.1"
   fill="none"
   height="105"
   width="454.9437">
  <sodipodi:namedview
     inkscape:current-layer="svg41"
     inkscape:window-maximized="0"
     inkscape:window-y="104"
     inkscape:window-x="28"
     inkscape:cy="56.399998"
     inkscape:cx="108.10007"
     inkscape:zoom="3.0157159"
     fit-margin-bottom="0"
     fit-margin-right="0"
     fit-margin-left="0"
     fit-margin-top="0"
     showgrid="false"
     id="namedview43"
     inkscape:window-height="846"
     inkscape:window-width="1429"
     inkscape:pageshadow="2"
     inkscape:pageopacity="0"
     guidetolerance="10"
     gridtolerance="10"
     objecttolerance="10"
     borderopacity="1"
     bordercolor="#666666"
     pagecolor="#ffffff" />
  <metadata
     id="metadata2">
    <rdf:RDF>
      <cc:Work
         rdf:about="">
        <dc:format>image/svg+xml</dc:format>
        <dc:type
           rdf:resource="http://purl.org/dc/dcmitype/StillImage" />
        <dc:title></dc:title>
      </cc:Work>
    </rdf:RDF>
  </metadata>
  <g
     id="g34"
     clip-path="url(#clip0)"
     transform="translate(-3e-4)">
    <g
       id="g22"
       fill="#e43225">
      <path
         id="path4"
         d="M 113.53,78.231 V 8.715 h 41.397 v 8.7154 h -32.825 v 21.374 h 29.479 v 8.7154 h -29.479 v 21.788 h 35.125 v 8.7154 H 113.53 Z" />
      <path
         id="path6"
         d="M 200.71,78.231 186.493,59.763 172.276,78.231 h -10.035 l 19.444,-24.694 -20.49,-25.524 h 11.29 l 14.008,19.091 14.217,-19.091 h 11.081 l -19.444,25.524 18.399,24.694 z" />
      <path
         id="path8"
         d="M 224.55,70.761 V 105 h -8.572 V 53.745 c 0,-13.073 10.036,-26.976 25.716,-26.976 15.89,0 27.807,9.9605 27.807,26.354 0,15.978 -12.126,26.976 -25.925,26.976 -6.69,0 -15.681,-2.9051 -19.026,-9.3379 z m 35.961,-17.638 c 0,-11.206 -7.317,-17.846 -20.28,-17.223 -6.272,0.2075 -15.89,4.7727 -15.054,20.751 0.209,5.1878 5.645,14.941 17.563,14.941 10.244,0 17.771,-5.8103 17.771,-18.468 z" />
      <path
         id="path10"
         d="M 276.81,78.231 V 28.014 h 8.572 v 5.3952 c 4.182,-4.7727 10.663,-6.4327 17.562,-6.4327 v 9.1304 c -1.045,-0.2075 -11.29,-1.4526 -17.562,11.828 v 30.504 h -8.572 z" />
      <path
         id="path12"
         d="m 305.25,53.122 c 0,-14.526 10.454,-26.354 24.88,-26.354 17.98,0 24.671,11.828 24.671,26.976 v 4.1502 h -40.143 c 0.628,9.5455 9.2,14.526 17.145,14.318 5.854,-0.2075 9.826,-1.8676 14.008,-6.0178 l 5.645,5.8103 c -5.227,4.9802 -11.918,8.3004 -20.072,8.3004 -15.262,-0.2075 -26.134,-11.413 -26.134,-27.184 z m 24.253,-17.846 c -8.154,0 -14.426,7.0553 -14.845,14.733 h 31.153 c 0,-7.4703 -5.436,-14.733 -16.308,-14.733 z" />
      <path
         id="path14"
         d="m 359.19,71.176 6.273,-5.6027 c -0.209,0 3.136,3.3201 3.554,3.5276 1.463,1.2451 2.927,2.0752 4.809,2.4902 5.436,1.4526 15.262,1.0375 16.098,-6.4328 0.419,-4.1502 -2.718,-6.4328 -6.272,-7.8854 -4.6,-1.6601 -9.617,-2.2826 -14.217,-4.3577 -5.227,-2.2826 -8.572,-6.2253 -8.572,-12.036 0,-15.148 21.744,-17.638 31.57,-10.583 0.418,0.415 5.227,4.7727 5.018,4.7727 l -6.272,4.9803 c -3.136,-3.7352 -6.063,-5.6028 -12.754,-5.6028 -3.345,0 -7.945,1.4526 -8.781,4.9802 -1.254,4.9803 4.391,6.8479 8.154,7.8854 5.018,1.2451 10.454,2.0751 14.844,4.7727 6.064,3.7352 7.527,11.828 5.227,18.053 -2.509,6.8478 -10.035,9.5455 -16.726,9.753 -7.945,0.415 -14.844,-2.0751 -20.489,-7.6779 -0.418,0 -1.464,-1.0376 -1.464,-1.0376 z" />
      <path
         id="path16"
         d="m 403.31,71.176 6.272,-5.6027 c -0.209,0 3.136,3.3201 3.554,3.5276 1.464,1.2451 2.927,2.0752 4.809,2.4902 5.436,1.4526 15.262,1.0375 16.099,-6.4328 0.418,-4.1502 -2.718,-6.4328 -6.273,-7.8854 -4.599,-1.6601 -9.617,-2.2826 -14.217,-4.3577 -5.227,-2.2826 -8.572,-6.2253 -8.572,-12.036 0,-15.148 21.744,-17.638 31.571,-10.583 0.418,0.415 5.227,4.7727 5.017,4.7727 l -6.272,4.9803 c -3.136,-3.7352 -6.063,-5.6028 -12.753,-5.6028 -3.346,0 -7.945,1.4526 -8.782,4.9802 -1.254,4.9803 4.391,6.8479 8.154,7.8854 5.018,1.2451 10.454,2.0751 14.845,4.7727 6.063,3.7352 7.526,11.828 5.227,18.053 -2.509,6.8478 -10.036,9.5455 -16.726,9.753 -7.945,0.415 -14.845,-2.0751 -20.49,-7.6779 -0.418,0 -1.463,-1.0376 -1.463,-1.0376 z" />
      <path
         id="path18"
         d="m 444.08,28.014 v -5.3953 h -1.881 v -1.0376 h 5.018 v 1.0376 h -1.882 v 5.3953 z" />
      <path
         id="path20"
         d="m 453.48,28.014 v -4.9803 l -1.882,4.9803 h -0.418 l -1.882,-4.9803 v 4.9803 h -1.045 v -6.4329 h 1.672 l 1.673,4.3578 1.673,-4.3578 h 1.673 v 6.4329 z" />
    </g>
    <g
       id="g32"
       fill="#ffffff">
      <path
         id="path24"
         d="M 55.405,78.231 49.1328,61.63 h -33.87 L 8.9905,78.231 H 3e-4 l 27.18,-69.516 h 9.8265 l 26.971,69.516 z M 31.779,18.676 19.025,53.123 h 26.552 z" />
      <path
         id="path26"
         d="M 69.622,78.231 V 8.715 h 8.7812 v 69.516 z" />
      <path
         id="path28"
         d="m 91.577,78.231 v -49.18 h 8.7809 v 49.18 z" />
      <path
         id="path30"
         d="M 108.72,13.073 V 12.658 12.243 C 102.029,12.0355 96.593,6.6402 96.384,0 h -0.6272 -0.6272 c -0.2091,6.6403 -5.6451,12.036 -12.336,12.243 v 0.415 0.415 c 6.6904,0.2075 12.126,5.6028 12.336,12.243 h 0.6272 0.6272 c 0.2091,-6.6403 5.6449,-12.036 12.336,-12.243 z" />
    </g>
  </g>
  <defs
     id="defs39">
    <clipPath
       id="clip0">
      <rect
         y="0"
         x="0"
         id="rect36"
         fill="#ffffff"
         height="105"
         width="454.95001" />
    </clipPath>
  </defs>
</svg>
